/* XPM */
static char *_85d7347c22a414ca028a4c96bd2d90dgrQ3jzTSpO9vlcIu[] = {
/* columns rows colors chars-per-pixel */
"64 64 26 1 ",
"  c #3A301D",
". c #222222",
"X c #252525",
"o c #2C2C2C",
"O c gray19",
"+ c gray20",
"@ c #373737",
"# c gray23",
"$ c #423320",
"% c #493B21",
"& c #543F24",
"* c #5B4228",
"= c #6B4A2C",
"- c #724E30",
"; c #7E5134",
": c gray26",
"> c gray29",
", c gray30",
"< c #555555",
"1 c gray36",
"2 c #646464",
"3 c gray44",
"4 c #7B7B7B",
"5 c #8B8B8B",
"6 c #979797",
"7 c #A7A7A7",
/* pixels */
"***********=4442>XOOO22>$%%%%%%%%%%%%%%%%*&>22#>,,,,,,,,,,,,<344",
"*********&*=<3432>XX>422>$%%%%%%%%%%&&%%%%*&>22#>,,,,,,,,,,<3334",
"******&&****=43322>>56622>$%%%%%%%%%&&%%%%%*&>22#>,,,,,,,,<34334",
"******&&****=5332234566522> $%%%%%%&%%%%&%%%*&>42#>,,,,,,<3332<%",
"&**********=<542><<<2355422>  $$%%%%%%%%%%%%%&>442#>>>>><3342<%&",
"$&*********=552><<<<<<244322>$   $$%%%%%%%%%&>23442#>>><3432<%&*",
"$%%&&&****=<52><<<<<<<<234322>$%$$    $$$$$$>232234334444<%%%&**",
"<$$%%%&&&*=42>>11<<<<<<<224422>$$%%%%%%%%$>242<<<<233342<%&===--",
"4<$$%&***=<2>><11<111<<<<<24322>$$$$$$$>2243><<<<<<2442<%&******",
"44<$$$%%%%2>#<<<<<1111<<<1<<2422<<>>><24432><<<<<<<<42<%&*******",
":<4<%%&**2>#<<<<<<<111<<<<11<<24434443442>>::<<<<<<<2<%&********",
"::<4<%%**>#><<<<<1<<<<<<<<<<11<245335432><<<::,<<<<<<$&*********",
":::44<%&>#><<<<<<<<<<<11<1<<<<1<233532#:::::::::>>>2<$&*********",
"::<442<>#><<<<<<<<<<<<<<<<<<<<<1<3332#><<<<<<<<,>>23<$&***&*****",
":<4442<>#>><<<<<<<<<<<<<<<<<<<<<23332#>,<<<<<<<<>366<$&*********",
"<42<>>2<>#>><<<<<<<<<1<<<<<<<<<242=23#>>,<<<<<2>2556<>$&******&*",
"2<>%%&>2<>#>>><<<<<<<<<<<<<<<<244**=43####>>2322<4552<$&****&&**",
"%%%%%%&>2<#>>>>>>><><<<<<<<<<244***=<43222342*****2342<$&***&&**",
"%%%%%%%&>2>#><<<<<<<<<<<<><<244&****=434442>&&%%%&*2442$&*******",
"&&&&&&&&&>2>@::>>>>>>>::><<2452&****=4442>$&&&&**%%*244<$&******",
"%********&><>@@@@:::::><<<2554<%&***<42>$%%%%%%%&*&&*242%$&*****",
"%%%%%%%&&*>2<>#:>>>><<<<<26655<%%***2>  %%%%%%%%%%&&*>42<$$&****",
"%%%%%&%%%&&>2<>#><<<<<<255665442%%&2>  $%%%%%%%&%%%%&*242>$%%&&&",
"%%%%%%%%%%%&>2<>#><<<<23532<<<244442>  %%%%%%%%%%%&&%&*42<%$$$$$",
"%%%%%%%%%%%%&>2<>#><<223<#:::><<4342,  %%%%%%%%%%%&&%&*>42<%%%%%",
"$%%%%%%%%%%%%&>2<>#>><>O#:::::><<4331  %%%%%%%%%%%%%%%&*242%&***",
">$%%%%%%%%%%%%&>4422<>@##::::::><<341: $%%%%%%%%%%%%&%%&*44<%&**",
"<>$$$$$$$%$%%%%&>5522O@#>>>,>>>>><<34,  %%%%%%%%%%%%%%%%*>42%&**",
"22<>$$%%%%%%%%%%%55<<@O<<<<<<<<<<<<<41:  %%%%%%%%%%%%%%%%*24<%&*",
"O#22>$$$$$$$$$$$>4<O@#::>,,,,>>>::><<42<  %%%%%%%%%%%%%%%%*42>%&",
"OO#>2<>$$$%%%%%>4<@@@>,,,>>::::::::><<42:  $%%%%%%%%%%%%%%*>4<%&",
"OOO##22>$$$$$$$4<O@@>>::::::::::::::><24<   $%%%%%%%%%%%%%%*>2<%",
"OOOOO#>2<>$%%%>2+@@#:::::::::::::::::><22:     $$%%%%%%%%%%%*22<",
"#########2>$$>4<+#::::::::::::::::>:::><21  $$       %$$%%%%*>42",
"OOOOOOOO##24444<+#::::::::::::::::::>>:><2,  %%%%%%%%%%%%%%%%*44",
"OOOOOOOOOO##2442++@###::::::::::::::>>::><2, $%%%%%%%%%%%%%%%*34",
"oOOOOoooOOOO#>243<>++++++++@@##::::::::::<42$ $$%%%%%%$$$$$$$*43",
"OOOOOoooOOOOo##24432<>++++++++++@@@@#####<442$          $$%%%*33",
"OooOOOoOOOOoOOO#233432<<>+@#:::::::::::#:<4%=1       $$%%%$$$>43",
"OooOOoOOOOXOOOOO#334434432<>+##::::::##::<2%*=2<,:        $%%243",
"OOOOOOOOoXoOOOOO#42&==<234432O+@#####::::<2%**=4322<,:     >22>o",
"OOOOOOooXXOooOO#22****===<2332<<O###:::::<2%***44433322222242>OO",
"OOOooXXXXOOooO#22%*******===><232<>O###:<42%%<24444545566752>OOO",
"oooXXXXXooOOO#23****==;;;;;;;;==<32<<>:<455322<<222222224472>OOO",
"XXXXXXXoOOOO@232**=-;;-=*******=-432223466532:,,<<<<11<<2<32>OOO",
"...XoXoOOOO#232**==*****=*======-4<233456622:,,,,,,,,,,,<2<32>OO",
"XXooXoOOOO#243%*=***************-2<><235532:>,,,,,,,,>,,,<2<32>O",
"OOoXoOOOO#243<******************-2>>>><342::,,,,,,,,,,,,,,<2<32>",
"oXXoOOOO#243<****************&**-2>>>><42<#:,,,,,,,,>,>,,,,12<32",
"XXoOOOO#243<*%******************-2>>><42<#@>,,,,,,,,,,,>,,,122<3",
"XoOOOO#2432>%&******&***********-2>><42<#:@>,,,,,,,,,>,,,,,12<2<",
"oOOOO#24552>>%**&&***&&*********-2<242<#::@>,,,,,,,,,,,,,,,12,<2",
"OOOO#24<2552>%&*&&******&&******-2244<##::@>,,>,,,,,,,,,,>,12<,<",
"XXXX22<<<<242>%&***&*****&&%%%%%%4354<##::@>,,,,,,,,,,,,,,,121,<",
"<<<2,<<<<,,<22>%&****************3355<##::@:,,,,,,,,,,,,,,,112<,",
"442,,<<<<,,<<<2>%&**************-1245<##::@:,,,,,,,>>,,,,,,1<2<,",
"4,<>,<<<<<<<<<32>%%%%%%%%&&&&&&*1<1342<##:##>,,,,,,>>,,,,,,1<21,",
"2,<<>,<<<<<,<<42222222222222222421<2342<#::@:,,,,,,,,,,,,,,1,22,",
"22,<,>><<<<<<<4XOOOOOOO4442>$&&&&&&&>242<#:##,,,>>>>,,,,,,,1,22<",
"==2>>>,>,<<<<<>XOOOOOOO442>$%%%%%%%%&>242<#:@>,,>>>>,,,>,,,1,221",
"**==<<>>>,,<<<>XOOOOOO#42>$%%%%%%%%%%&>242<##:,,>>>>,,,,,,,1,221",
"****==2<>>>>>2>XXXOOOo<2>$%%%%&%&&&%%%*&>42<##>,>>>>,,,,,,,1,222",
"******==222224>XOOXXX#2>$%%%%%%%&&&%%%%*&>42::#>,,,,,,,,,,,1,223",
"********==4444>XOOOOO<2>$%%%%%%%&&&%%%%%*&>22::#>,,,>,,,,,,1,234"
};
