/* XPM */
static char *_dc42b887e1141d2aad5559bc4160a97wx41oaKro0CQJ36A[] = {
/* columns rows colors chars-per-pixel */
"64 64 22 1 ",
"  c gray14",
". c gray24",
"X c #414141",
"o c #494949",
"O c #4C4C4C",
"+ c #505050",
"@ c gray33",
"# c #585858",
"$ c #5F5F5F",
"% c #676767",
"& c gray42",
"* c #727272",
"= c gray48",
"- c gray51",
"; c #8E8E8E",
": c #9A9A9A",
"> c #AAAAAA",
", c #B6B6B6",
"< c #C6C6C6",
"1 c #D2D2D2",
"2 c gray87",
"3 c #EFEFEF",
/* pixels */
".@@ooooooooooo@oooO%%%%%%%%%%%%%%%o @%:;;;>>>>1:@.  @*;:,,>1;@# ",
".#O.;>>>>>>>=O#.=,<,1<2212212212>;% O$>;->;;;:<:O.. #&;>>:>1;#@.",
".+. %-<<221<>o@ =>-,,,>,,>,,>>,,1,% o%->-*>;:;1;..  o*->-:>1-@# ",
".@. .%>>>>>1>oo =>;>;>;>;;>;>;:><2& .$;>==;>;>1:... o*;;,:>1;@+.",
".o. .$->->>2>o. #:>;>>;>->:>;>-><1; .%>-;;>->;<;..  o+*:->:,;## ",
".o  .%>>>>;1>O #@;->;;>-:>;>;;>-,2: .@-;>;->->1:.. . O@*:;>>;@+.",
".o. .$=;=,,2;o @##*->>-:>->;:>;>>1;  o*;->;>;>,;...  .oo$==;-@# ",
".O  .%=>=>12;. @@@&;>;>>;>;>:>>;>1-. .@$%&*&&&>:.. . .oO#&*-;@+.",
".O  .$:;>;2,%  #@@*;->;;>=>->=->:<;  ..Oo#+#***: ..          ## ",
".o. .%>;:>2>O .   @+#+&>->;>->>->>;O .........X ..... . .O@#@@+.",
".O  .%-;;,2>O....     #@#@+@#+**X*oO            @O+@XOoOooooOoO ",
".O  .$>:=2,;@OXX.X...              o......ooo@##oOoo*;><3332221.",
"... .%>>>2>&...OXoooX+o#=:,<223332222121-+@@@ooo*;>2213,<1,1<12 ",
"..  .$:--2>$...=:,1233332122,>::;>>>->:<2#ooo*;<<<1<>;>>;>:><<2.",
"..  .%-;>1>#  .%:>->;:>;>:=-=>->:>*:>>;>2O %::,,->;;->:::->>,12 ",
"... .%=>;2>O  .$>-;>>;;::=>::>:;>-:-;>:;2..@;>;:>->;:;>>;>>:1,1.",
"..  .$>=>1>.. .%-;>-=>-;>>->=;>>==;>>->:1  #*->;:>-;=;;->;>>,12 ",
"... .%=*;2>.  .%;>->:;=;->;;>;;>;;>;>>>:< .@*>;-;:=:==;>>>>;<11.",
"..  .$;;>1>.  .$;;>;-;;>;-;;>;>->>->;;;>>  #&>=:>-;:=;;;:;:><12 ",
"..  .%=>>2:.. .%&-;;>->->;>;:>->:--==>:;>  o*-;::=>->;;:;:>>,<2.",
"... .$:=-2;.  .@%*&$%%&%%&&$$%%&&%%$$$>:;  o@>;*>;;;:>;-=:;><12 ",
"..  .%-;>2;.  .@@@##+##@+####+@Oo..    .$  o@*-;-=->;-;:;:>><11.",
"..  .%>-;2-.. ........             .OO@+.  .*;>;>;:=->-;;;-:,,2 ",
"... .$;;><=.                 . .OoooooOOO   +&;;->;;=;>;>;>>,11.",
"..  .%>>>1=..          . ..OO+#+=;;::::=%+  *@&;>;->;>->;>>>112 ",
"..  .$;-><&.         .Xo+@+@&;><12333321=O  @*;&++*;&&#&$;&=;<2.",
"... .%>><,%X.. . o%===%ooo;,1332<,>;-><3>O  o@&#*#++%#=@#+@@$;2 ",
"..  .$-;1>%#@-;>,<,<<<=o.;,2,,>>>:;;>:;2>+   OO@o.....         .",
"..  .%>>2>+oo:11222<<,=. ;>>>>>>-;->;>>2,O              ....... ",
"... .$>>1>#o.&,11,,,3<=..$;-;;::;>;-:;-<<O       . ....Oooo;>--.",
"..  .%:>1>o..*>;>;;<3,=. #=>=>;;*;=;>=>,<o. .OOOOX.Xooo@o=>,1<> ",
"..  .#%=,>o. *;->;;,3<=. o%;:-;>;>;=->:,2;.;:>>>>>>*o..o;;;;>,,.",
"... .@@%--o..&;>-;-<3,=. .$>-;=-=*=;;>-<2;+*;<<332,>O .=>->;;;1 ",
"..  ..  .OX. *>;;>;,3<=O  @;;:;>==;==;>,2;..*>>->,2>O ..>>>->><.",
"...   ..o@o..*->;;;<2<=o. o>:-==>;>;;-:<1> .;;>;;>11* ..:;->;-1 ",
"..   .o++o.. &>-;:;>2,=O  O-;>==;==->;>,2> .&&;>-;,2= ..;>;>>;1.",
"..X+OooOO.. #>=;=;>,3<=X. .;;;>;>;;;;>:<2;  .*->>;-3; ..;>:>-;< ",
".++.,12>o. O*;;>;:-<3,=+  .%;>->->->;-;,2;  .*>-;;>1> ..;-;>>;1.",
".##o>,>1o..@&>-;->>>2<=O  .@$$*&-->;;>-<<;  .&;>>-;1:  .>>>-;;, ",
".+..,>>2.. @=>:=>->,3,=o. ...oo#+#@++#%&:=. .@>;-;>1>...&*&;>-<.",
".@.+,,2:...#;-==;;;<3<;O      ....oOOoo#%#  .#-;>;-:>  ...#*->> ",
".. %:>2=.. @=;::::;,3,;o.... .              .@#+@+*&:.  ..@+#+-.",
".. $$,2O ..#==;:->:,31;oooXoOXOX.........X. .......@*   ......# ",
".. %:,1O.. @=-:->>>>32:#@+#=;;;;;;;-;-;;=%          .Oo.       .",
".. %-,,o...#=;=>:->>22>@#o.>1111213333322,;$$......@+@o.......o ",
".. $%$@@.  @=;>;=:>:23,=oo.=;:>;>;;>->>><22221>&o .oOoo*;-;-;&o.",
"...Oo#@@. .#==->-;;:13>=o+.+>;>>;;>>>>-::>>>><1># .;,<<222121;o ",
".+@2,=O@.. @=;;;;:=;13<=O@..+>-;;>>-;;>;>->>;><2@..&;><2>,,22;o.",
".@#:>2,o. .@=;=;>;:;,3,=o#X.#+#+@++#+##&*=;-;->1# .%&;;;>;>,2-o ",
". @:;:2o.. @=>;>-;->,3<=o@o.                   ## .$*>;>->;<2;o.",
". @:>>2X.  #=-;-;=>;,3,=o# XOOoOOO###@OOoOoOoOoo ..@%-;-:->,1;o ",
". @>->1o.. @=>;;>->><3<=O *><<222>o.. o&--;:::=@o .O$>;-=:;12;o.",
". @>>;2o.  #=;-=;::-,3,=o +>>>>;-2X. .;<,<<121<=O .o%;::>->2,=o ",
". @;>>2o.. @=;>;=:-;>3,=o o;:;>-;1o. .*->>->>11:o..o#-:*:;>2,&o.",
". #:>-2X.  @=>;;*;>;,3<=. @>>>->,,+. o$>:->;>,2:o ..@;::=;:2>%@ ",
". +>->1o.. #=-=-;>;><3,=. #:;>;>2;@. o#;;::::,2;OX .@*-;;>;1;o+.",
". @:>:1o.  @=;;>=->-,1<=. @;>->-2$+. o@;>;>->>2:oX .@&;>>-;2-o# ",
". #:;><X.. #=;;;:>>>,2,=. #>-;>;1##. o@:-:;:;,1:o. .o%>;-;>1;o+.",
". @>>;>o.  @=;-*;;:;<1<=. @;;>->2o@  O%;>->;>,2:o. .O$;;>:;<;O# ",
". #;->:o.. @=:=-;>;>,1,=. @->;>;2o@. o%-;:;:;,2;o.  o$>=>;>1;o+.",
". +;>1=+X. @%&&&*&&&=;<=. #>:>;-2O#  o&>==:*:>2:o. .O%>>;>-1-o# ",
". #+@:O#o.  +###@#@##%=*. @##$$-;o. .@=;==---,1:o.  o$->=:>1;o+.",
".     o@Oo..     . .  ... .......o. .#;>;;:;:,2:o. .o%>*>;;<;O# ",
".#@##@@@@OX.........+O++....ooo+@@. o@-;;;:-:,1:X.  O$;;:::1;o+."
};
