/* XPM */
static char *a47a33627364492faecf67fcac9c032fuFvjRQZxMAYg9F2m[] = {
/* columns rows colors chars-per-pixel */
"64 64 25 1 ",
"  c #252525",
". c gray19",
"X c gray23",
"o c #424211",
"O c #585516",
"+ c #6F6B1C",
"@ c gray29",
"# c #555555",
"$ c #646464",
"% c gray44",
"& c #7B7B7B",
"* c #838322",
"= c #9A9A28",
"- c #B2AA2C",
"; c #CAC233",
": c #E3D738",
"> c #FBF347",
", c #8B8B8B",
"< c #979797",
"1 c #A7A7A7",
"2 c gray70",
"3 c gray75",
"4 c gray81",
"5 c gray86",
"6 c gray92",
/* pixels */
"X##@@@@@@@@@@@#@@@@$$$$$$$$$$$$$$$@ #$<,,,1*-;4<#X. #%,<2214,##.",
"X#@X,1111111&@#X&,*----555551%--2,$ @$*=;1,1*-;<@X. #%,12<12,##.",
"X#X $,3233;;1@# &,&***--221<1,==-2$ @$,*=&1,1*-<XX. @%,1&+--,##.",
"X#X @%343<::;@.#%,,,&&*-1,11,1%*--% X$,1&&----5<XX. @%,%,#-2,##.",
"X@X X$13<--;;X.#$,1,1<1<,-,,1,%$*-, X$,,,#+==-5<XX. @#%%1,#2,##.",
"X@. X$,23<,;;X ##&,1,<<,<*<,1%1,$,< X#,,,%#+*=;<XX.. @#,,,%1,##.",
"X@. X$&323,;=. ##$1,,,=-,,+*-,%111,. @%,,,#+++=<XX.. X@@%,&,,##.",
"X@. X*-:13,;,..###,1,++=-%++=---11,. X#$$%,###%<XX.. X@@#%%,,##.",
"X@. XO*-12<-$. ###$,,++*=,%+++*-11,. XX@@###%%%<XX..         ##.",
"X@. X%O*<31=@..   ###$$%%<%%%%%%11,@ XXXXXXXXXX.XXXX....X@#####.",
"X@. X&323231@XXX..    ########$$@$@@.           ####@@@@@@@@@@@.",
"X@. X%1213-,#@@@XXXX..             @XXXXXX@@@###@@%,15555555555.",
"XX. X$3421:%XXX@@@@@@@@#&<2355666666---;,####@@@%,155563443444;.",
"XX. X%413,:$XXX&<2456666555531<411<$**=-;#@@@%,334441,11,===--;.",
"XX. X&142,;#. X$<1,1,1<1<1&,&1,1<4<<$$*-;@.$<<33,1,,<&&<&+*=--;.",
"XX. X%131=;@. X$1,,11,,1<&1<<1<<1,11<$$=-X.#<$+*1,1&&<<&&++*--;.",
"XX. X$13,=;X. X$,,11$*=,11,-;<11&+**<<$&= .#%$$,<1,,;<&<<&%++-;.",
"XX. X$4;,=-X. X$,1,1$$&,,1,*-1,*,1,,&*$&, .X,,<=;<,=-;;;11&<<<5.",
"XX. X$3=,=-X. X$,,,,,1,,$&,,&1,,&,$**=$&2  X$,$*=%,%==-<<<<;;15.",
"XX. X%3<,=-X. X$%&,1,,&1,,,1,&&1,&&+++$&2  X%%,1%<1,%%%<4<1=;;5.",
"XX. X&1,,=-X. X#$$$$$$&&&$$$$$$$$$$$$$$&2  X%,%%1,,,<1,,&<<1=;5.",
"XX. X,3,*=-X. X###########ooooooooo    X$  X%#%,,&,1,,,<*==1345.",
"XX. X11,*=*X. XXXXXoOOOOoooo       X@@##X  X%,1,1,<&,1,,<,,<335.",
"XX. X,4,**%X.                ..X@@@@@@@@@  .#%,,,1,,&,1,1<%,33-.",
"XX. X&1,,,&X.         ...XX@@###&<<<<<<=$@  %#%%+*$=,1,1,%,,*;-.",
"XX. X$&2<,%X. .XXXXXXXX@@###%,1<<666666;=@  #%,$##$,%,,,,,*=-;-.",
"XX. X$1133$@X.......++$@@@,2466=;1--;:<-;@  @#%#%###$#######$,5.",
"XX. X$4,51$##,,123,-;;=@X,35331+=;1<11<%;@  .@@#@XXXX..        .",
"XX. X$1::1#@@<4555,--;=X.,<+*;;&+==;;<=<;@              XXXXXXX.",
"XX. X$,*:1#@X%2443,=-;=X.%&$+*;&%+++=;<1-@      ...XXX@@@@@,1,,.",
"XX. X$,,,1@X.%,%*===-;=X.%&&$+=,&&&&&*;14@...@@@@@X@@@@#%&13531.",
"XX. X#$&31@X.%2&%+*=-;=X #%,&&,<1<<1<<1<6,X,1&::111%@XX%,=;,125.",
"XX. X##$&,@X.%<,%+==-;=X #%1,<&1<1&<;;<16,#%,,&::;>1@.X%1*=,,,5.",
"XX. XX  X@@X.%2,%+*=-;=@.@%,1<&&<1<1*;<<6<XX%&,&**;>@.X#,-1,&;5.",
"XX.   XX@#@X.*--%+*=-;*@. $*<,&<&<1<<1&=;= X,,&&&&=>% X#1,,1;&5.",
"XX...X@##@XX.+--&%+**=&@.o$$-1&&<1<&1<1&;= X%:,1,1,51 XX,1,1&;5.",
"XXX@@@@@@XX.#++*<%++11&#X@%$==------<**=;=  #$=:;,,51 XX,1&$+=;.",
"X@@X2$-*@X.@%,,2,,%,33,#X#%$$*******<1&*;=  X$+:::151 XX,%O**=;.",
"X@oo***-@X.#%12,=11311<$X@#%$$$%$,&&&*==-=. X$$%&:,41 XX1$#++=;.",
"X@oO+**-XX.#&%,,133113<$X XXX@@@###$$$+*=&. X#1,,,145.XX%%%##+%.",
"X@X#$+*-XX.#,&222,113<1$X     .XoooooOO+*#. X#,+*==55. XXX#%&#,.",
"XX $<$$$XX.#-,<<12,=;31%XXXX             .. X#####%;+X XXX####,.",
"XX $$25@XX #22,1,,&==11%@@@@@=+XX+XXXXXXXX. XXXXO+O+XXX XXXXXX#.",
"XX $<25@XX #+:,22<<1<31&@##&,,,===-:,,,,&$.   XXXX XXXXX.      .",
"XX $,22@XX.#+-:1;<31131&@@X144455566%-:553,$$XX@@XXXXXXXXXXXXX@.",
"XX $$$##X..#&+-,1;<<<32&@@X&,1315131,%,1351,==-:@.X#%&&&**===%@.",
"XXX@@###X..#&1+-,;<3-;2&@XO++*---1351,,151,***--#.X,222$+=::;=@.",
"X@@$,,=#X..#%,<1,<1<*-;&@XOoO+O+=-115113131,%#*-#.X%,&2,$++-:=@.",
"X@#$,&;+X..#$11-1,;11*;*@XXOoo######O+=:%$###$$$#.X$&=,&,$$+==@.",
"X #<1&;-X..#&<31,&&;<*;*@@XX                  .##.X$$@=1,&,$+=@.",
"X +1,&;=X. #,,<<,%&-;*-*@@@@@@@@@@@@@@@@@@@@@@@@ .X#$,&1&;2&,&@.",
"X O;1&=*X. #,,12<,&-;2**@ %1345<%+XX.O=:&,,<<<&#@.X@&1<&;;:22&@.",
"X #;;&&+X. #,2<-2,<&-23&@ #1111%==XX.XO1<,11;;3&@.XO=:&,&;;53&@.",
"X #=;1;+X. #&&<*-:1,&:3&@ @,1,1%+=XX X%<11<&;;;<@.XXX&&1&&&;;%@.",
"X #&111OX. #&,1<*-1<,-:&X #=======XX @$1<:1,&;;<@.XX#,<&++=:;$#.",
"X +11,1@X. #2,<112<133-&X #*+++==-X. O:<,<<<<&;<@X.X#%$@+==:;@#.",
"X O*=;4@X. #&;,1<1,%-33&X #%&,%*=-X. O-:1,1==:5<@X.X$,%%@@@@$@#.",
"X #%*=;@X. #$<,<<,,%=-;&X #<,&%*-*X. O*:<1&&==-<@X X@%<,%%$$$@#.",
"X #%%%2@X. #&,2-%------&X #&<<O+-*X  O+&:<1&&&1<@X X@<,<&$=;;@#.",
"X #,,1<@X. #&<&-%%%%*-*&X #%<$$+-@X  @O1<1&1<11<@X .@$<,,@*;;@#.",
"X #,15&#@X #$%%%%%%%&*3&X #<1<%+*@X  @%<&11;;;;<@X .@%,,%@+*,@#.",
"X ###<@#@X. #########$&&X ###$$&<@X X#%<1&====;<@X .@,,1&$@&,@#.",
"X     @#@@X.     .....XXX XXXXXXX@X X##1<&+***;<@X .@$1&*-,4,@#.",
"X########@@XXXXXXXXX@@##XXXX@@@###X @#%<1<%<%%5<@X .@$,$$&<4,@#."
};
