/* XPM */
static char *f78358057a4a4e76f29c75e02f9d57bciqRzkLlZhMRoatEE[] = {
/* columns rows colors chars-per-pixel */
"64 64 26 1 ",
"  c #252525",
". c gray19",
"X c gray20",
"o c #373737",
"O c gray23",
"+ c #410709",
"@ c #4C080B",
"# c #570A0C",
"$ c #620B0E",
"% c #6E0C10",
"& c #790E11",
"* c gray26",
"= c gray29",
"- c gray30",
"; c #555555",
": c gray36",
"> c #646464",
", c #850F13",
"< c #941115",
"1 c #A01217",
"2 c #AC1319",
"3 c #B7151A",
"4 c #C3161C",
"5 c #CF171E",
"6 c #DB191F",
"7 c #E81A21",
/* pixels */
";O.@&$$&11&5;O;O;O==;O;.+%11,113;===;==O;;;.+%%1%,27;========O;O",
";;.@<11<&&15O=14555557=.+%,,&&23;=14333777;.@21,11,5O=&3345577OO",
";O.@#&&##&#5;.$111,115;.@,&&1,13;O<1%2$2,7=.@$$,1,,5O.$1&1&147;O",
";;.@1&1<&115O.$$$,$$,5O.@<11<123;.$$$,1,25O @%11,125O.$%1&1&25=O",
";O.@$$$$1&15;.$1,111,5=.@%&<&<<3;.$%111135O.@@%,<&<3O.$,1,1125=O",
";O.@$<1$$1$3=.$$1,$,15O.@%111143=.$%@@%<&5=.@&,&$,&3=.+#%<%,55=O",
";O.@,<$1<$<3;.$,$$,$$5O.@<&<&&23=.$%,1,135;.@%&&1,23=.+%1&<1,5=O",
";=.@$$,$$<$3=.$%11%115=.@%<&<123O.$#&##&&5O @<<,&$&3=.+&<11<15=O",
";=.@&<11&&13=.$,$,$,15=.@%1,1,43=.$%1%1%35; @%$&,1<3=.+#%%1%55;O",
";=.@&$$&1$&3=.$<1&1<&3O.+%%%%%13O.$@$,$,&5O @<11,,,3O.+%<,%1,5=O",
";=.@1&11&143=.$&$<$&<3O.+++++++1O.$%111123=.@%$<<$23O +,%11,45=O",
";=.@##&###&3;.@1111113O..OOO..O=O.$%#,%1,3=.@#,$$,$3O +%#%#%15=O",
";;.@11#&1&13>O@,$&,$&3O========O=.$,1%1,23O.@<111123O +++++$$1=O",
";;.@$$,%,$$3>O@,11&,13=;===;O;O;;.$$$&,<,3O +%1$,1,3O........==O",
";O.@%11$$,13;O@,%#,#%3==1<555555>.$,11<,23O +%%%%%13=OOO=======O",
";=.@,$&1<$&3=.@11,11,3O.$$$<$$15>.$%,&1143O.+++++++1O;=;=;;;;;;O",
";=.+&<,$&,13; @<$1$<13O $11$11$5;.$%$,$,,3=OO.....O===&<335577=O",
";=.++++++++1O @$$$<$$3O $1&11&15;.@,,$,$23=====OO==;=.$<43,337OO",
";=.........=; @,11,113= $##&&,%5;.@%1&11,3;O;;;===;==.$%,,3,,5=O",
";;=========;= @&##,#&3= $1<1<115=.@%,1%%23==12555577=.#%111,35=O",
";;;=;=***===;.@#,,#,13=.$&1&1&15=O@$$$,1,3=O$12%%2%7=.#@%,,1,5=O",
";;=145555557=.@$&1&<,3=.$%%#%1$5=O@%111,33=o$%#11%25=.#,1,1,35=O",
";;O+1@@1&&17*.@11#1,13=O$1,<1<13*O@<$,,$23*.$,11,145= #%%<%%,5=O",
";;o+@11@&115O @@&<@$$3;O$%,,%%,3*.@%,$$,$3O.$#&&<&&5O #%111135=O",
";=o+%%1%%%15O @1,1<113;O#11,1113O.@<&1&123*.$%11,135O #,%%,1&5=O",
";=.+11$11115O @%$&#&$3=.#$,,,,13O.@%&%1%43O.$<,$,1$5O #%1,1%35;O",
";=.+$$1$$$$5* @<<1,113= #11%1,%3*.+%2#%2%3*.$%$,$,,5; #@%%%<<5;O",
";;.@1&&1&%15=.@&$1$&13O ##%,#%13O.+++++++1O.$,,1,134=.#%<11135;O",
";=.@@&%@&@@5;.@1,1,1&3O #,,11,,3O.......O=*o$$#$,$,4=.+,,,%1<5;O",
";=.@,,,11&15= @%%%,%%3O #$@$@,$3*=OO=;;==;=o$%,%%1,4= +%%%,%35;O",
";=.@$@#&#<&5= @11&%<13; #1$1,113;=;;;:>:;;=O$,%11%44O +,&<&<&5;O",
";;.@1<&<1&13O.+++++++1=.#,<,,,13==14555577=O$#$$,$<4O +%1&1135=O",
";=.@$$@$@1$3=..  ...OO=.#$$$1$$3=.$14%3337;o$%1,$,14= +@%,%%&5=O",
";=.@1,111,13===OOOO==;=.#<1,,113=.$%%1&<%5O.#<,111,4=.+,<%<135=O",
";O.@%@$$1$$3;O;;;===;O;.#%<<%%13;.$<1%1155;.#%&&,&&3=.+%&1&<45=O",
";=.@$11,$,13O=14555577O.#<%%<,%3O.$%%<&$15=.#<#,&1,3=.+%%%%%15=O",
";=.@1&$&1<<3;.$%11,,17=.#11,1113;.$,1,1125* #$&&$&13=.++#+##%1=O",
";=.@$$&$$$13=.$1$$1115O.#$&1&$&3=.$#,$$$,5O #,11&1,3=........==O",
";*.@&1&11&$3=.$$$1$$$5=.+&1&1113;.$%1,1,15O #%$$,$13;=OOOO===O=O",
";O @1,$$$,13=.$,1,$,15O.+++++++1=.$%,<%%25O #,,1,1,3O;=====;O;=O",
";O @$$,1,%$3=.$$$$,$$5=O..OOOOO=* $%%%<<,5* #,#,1113=O,3335557;O",
";* @,1%,#,13=.$1&11&15=====;;;=;O $%111,25*.##,##,&3;.$%<%%117;O",
";O @%###,##3= $###&##5;==;;>>;;;* $$$$&$<5=.#<11,$43;.$%111147;O",
";O @,1,%,113= $&11#,15==14455554O $,1,1123=.#%$$&1$3;.$#$&$&27;O",
";*.@$#%<$$%3= $1#%1#%5;.$11&1117* $%#$&$&3; #%,11,43;.$%,1,$46;O",
";= +,,$$%1$3-.#&1<&<13O.$#&1&#&5=.$,%,1,$3* #,1%%1,3:.$%1,1126;O",
";* ++++++++1;o###&#&#3;.$1111115;O#@%1,113O #@%,1%<3>.$@&$$,26;O",
";O  .....oO=;O#<<&<113=.$%1%%%%5;O#1@&$$,3O #%,%%,33>.$,,11%46=O",
";*O=OO=====O;o#%##1#,3;O$1%11115=O##1,11%3*.#<111143:.$@%%%,%6=O",
";;=;===;;;;;-.#,1,#1#3:O$11$,,15=.#%@%%%,3=.#%%%1%<3;.$%,%1146=O",
";==145555557= @$$$1$<3>=$,,11$$5* #11,%113=.#,11%143;.$#&1&&&5=O",
";=.+$$$1$$15=.@1,1%1,3;O$1,1,115O #@#&1&&3=.+%%%%%13=.#,111,45OO",
";O.+$11$11$5=.@%%&%%%3-.$,&&1,&5* #%11<1,3;.+++++++1= #@,%,125OO",
";;.@##,#%#,5=.@11,1,13=.$11&11,5=.#,@,%,13=O   ..OO=* #%111145OO",
";=.@1%11%115O.@%%<%%,3= $&&1&&&3=.#@11<1<3;==*OO*==*O #@$,$,,5=O",
";=.@##%,1%#5. @1&,11&3O $11&1,13=.#11$,$,3O;O;===;O;* #,111124=O",
";=.@111%1113  @&1<&,13; $%%1%,%3;.##,11113;=12244477; #$&1<&14;O",
";= @%%,%,%%3  @<&&1&&3=.$<<,<<13O.#1$&1<&3*.$1&2&247O.#@,&&,&4;O",
";* @11%1%,13o.@%<%%<<3;.$%,<,%,3;.+@@,&&,3O.+&1&1&&5;.#%111144=O",
";O @%%%%,1%3O.@1,1,1%3=.#<1<1<13=.#1%11113*.$%111125=.#,&#&#<3=O",
";* @1##1%%13=.@$$,$$,3;.#&&,<&&3=.&%,&#&#3;.+##&1,,5=.+%111143=O",
";= @$$1$$1$3=.@<%11,13O.#1,&&<13=.#%%%%%13=.+%11&&25=.+,%,%%13=O",
";=.@11%%%,13;.+++++++1;.#11%1,%3;.+++++++1=.$<&<11,5;.+++@@$&1=O",
";=.@%@11,@%3=........=O.+%%,%%13O........==.+%,&&<25O........=OO"
};
